# xmcd
#
# Track frame offsets:
# 150
# 36337
# 54895
# 75874
# 108225
# 144151
# 170877
# 190881
# 221470
# 242422
#
# Disc length: 3522 seconds
#
# Revision: 1
# Processed by: cddbd v1.4PL0 Copyright (c) Steve Scherf et al.
# Submitted via: CedeCatalogueitor 2.5 http://usuarios.lycos.es/kakasboy
#
DISCID=790dc00a
DTITLE=Ana Torroja - Miguel Bosé - GiraDos En Concierto
DYEAR=2000
DGENRE=
TTITLE0=Duende
TTITLE1=Barco A Venus
TTITLE2=A Contratiempo
TTITLE3=Sol Forastero
TTITLE4=Nada Particular
TTITLE5=La Belleza
TTITLE6=Hijo De La Luna
TTITLE7=Amante Bandido
TTITLE8=Diosa Del Cobre
TTITLE9=Corazones
EXTD=
EXTT0=
EXTT1=
EXTT2=
EXTT3=
EXTT4=
EXTT5=
EXTT6=
EXTT7=
EXTT8=
EXTT9=
PLAYORDER=
